<svg width="200" height="200" viewBox="0 0 200 200" fill="none" xmlns="http://www.w3.org/2000/svg">
  <!-- Circular background -->
  <circle cx="100" cy="100" r="95" fill="#10B981" opacity="0.1"/>
  
  <!-- Sun rays (outer) -->
  <g opacity="0.8">
    <rect x="97" y="20" width="6" height="25" rx="3" fill="#F59E0B"/>
    <rect x="97" y="155" width="6" height="25" rx="3" fill="#F59E0B"/>
    <rect x="20" y="97" width="25" height="6" ry="3" fill="#F59E0B"/>
    <rect x="155" y="97" width="25" height="6" ry="3" fill="#F59E0B"/>
    
    <rect x="140" y="40" width="6" height="20" rx="3" fill="#F59E0B" transform="rotate(45 143 50)"/>
    <rect x="54" y="40" width="6" height="20" rx="3" fill="#F59E0B" transform="rotate(-45 57 50)"/>
    <rect x="140" y="140" width="6" height="20" rx="3" fill="#F59E0B" transform="rotate(-45 143 150)"/>
    <rect x="54" y="140" width="6" height="20" rx="3" fill="#F59E0B" transform="rotate(45 57 150)"/>
  </g>
  
  <!-- Sun circle -->
  <circle cx="100" cy="70" r="28" fill="#F59E0B"/>
  <circle cx="100" cy="70" r="24" fill="#FBBF24"/>
  
  <!-- Solar panels (3D perspective) -->
  <g>
    <!-- Back row -->
    <path d="M50 105 L70 100 L130 100 L150 105 L130 110 L70 110 Z" fill="#0EA5E9" opacity="0.7"/>
    <path d="M70 100 L70 110 L75 112 L75 102 Z" fill="#0284C7" opacity="0.8"/>
    <path d="M130 100 L130 110 L125 112 L125 102 Z" fill="#0284C7" opacity="0.8"/>
    
    <!-- Middle row -->
    <path d="M45 120 L68 114 L132 114 L155 120 L132 126 L68 126 Z" fill="#0EA5E9"/>
    <path d="M68 114 L68 126 L73 128 L73 116 Z" fill="#0284C7"/>
    <path d="M132 114 L132 126 L127 128 L127 116 Z" fill="#0284C7"/>
    
    <!-- Front row -->
    <path d="M40 135 L66 128 L134 128 L160 135 L134 142 L66 142 Z" fill="#06B6D4"/>
    <path d="M66 128 L66 142 L71 144 L71 130 Z" fill="#0891B2"/>
    <path d="M134 128 L134 142 L129 144 L129 130 Z" fill="#0891B2"/>
    
    <!-- Grid lines on panels -->
    <line x1="100" y1="100" x2="100" y2="110" stroke="white" stroke-width="1" opacity="0.3"/>
    <line x1="100" y1="114" x2="100" y2="126" stroke="white" stroke-width="1" opacity="0.3"/>
    <line x1="100" y1="128" x2="100" y2="142" stroke="white" stroke-width="1" opacity="0.3"/>
  </g>
  
  <!-- 'S' letter integration (stylized) -->
  <path d="M100 155 Q85 155 85 165 Q85 172 95 172 Q105 172 105 178 Q105 185 95 185 Q85 185 85 175" 
        stroke="#10B981" stroke-width="8" stroke-linecap="round" fill="none" opacity="0.3"/>
</svg>
